<svg width="50" height="50" viewBox="0 0 50 50" fill="none" xmlns="http://www.w3.org/2000/svg">
<path fill-rule="evenodd" clip-rule="evenodd" d="M34.4999 33.2604C31.632 31.9495 28.354 31.25 24.9998 31.25C20.8723 31.25 16.8601 32.3093 13.5855 34.2636C10.6874 35.9932 8.51033 38.3384 7.30751 41.0045C7.05982 41.5535 7.41022 42.1676 7.99983 42.2904L16.8389 44.1326C22.2217 45.2544 27.7779 45.2544 33.1607 44.1326L34.4999 43.8535V40.5H29.1665C27.5097 40.5 26.1665 39.1569 26.1665 37.5C26.1665 35.8431 27.5097 34.5 29.1665 34.5L34.4999 34.5V33.2604ZM40.4999 42.603L41.9998 42.2905C42.5894 42.1676 42.9398 41.5535 42.6921 41.0045C42.6156 40.835 42.5352 40.6668 42.451 40.5H40.4999V42.603Z" fill="#2F1E0E"/>
<path d="M37.5 29.1665L37.5 45.8332" stroke="#2F1E0E" stroke-width="2.5" stroke-linecap="round"/>
<path d="M45.8335 37.5L29.1668 37.5" stroke="#2F1E0E" stroke-width="2.5" stroke-linecap="round"/>
<circle cx="25.0002" cy="16.6667" r="10.4167" fill="#2F1E0E"/>
</svg>
