<svg width="51" height="41" viewBox="0 0 51 41" fill="none" xmlns="http://www.w3.org/2000/svg">
<path d="M20.5 28L20.5 20.5" stroke="#1F1206" stroke-width="5" stroke-linecap="round"/>
<path d="M15.5 3L10.5 13M35.5 3L40.5 13" stroke="#1F1206" stroke-width="5" stroke-linecap="round"/>
<path d="M30.5005 28L30.5005 20.5" stroke="#1F1206" stroke-width="5" stroke-linecap="round"/>
<path d="M3 13H5.02388C6.45753 13 7.17435 13 7.7058 13.3954C8.23725 13.7908 8.44323 14.4774 8.85518 15.8506L14.6448 35.1493C15.0568 36.5225 15.2628 37.2091 15.7942 37.6045C16.3256 37.9999 17.0425 37.9999 18.4761 37.9999H32.5239C33.9575 37.9999 34.6744 37.9999 35.2058 37.6045C35.7372 37.2091 35.9432 36.5225 36.3552 35.1493L42.1448 15.8506C42.5568 14.4774 42.7628 13.7908 43.2942 13.3954C43.8256 13 44.5425 13 45.9761 13H48" stroke="#1F1206" stroke-width="5" stroke-linecap="round"/>
<path d="M3 13L48 13" stroke="#1F1206" stroke-width="5" stroke-linecap="round"/>
</svg>
